# xmcd
#
# Track frame offsets:
#	150
#	13790
#	28872
#	47477
#	65072
#	83730
#	97792
#	118830
#	136810
#	160092
#	174935
#	198360
#	209315
#	230585
#	243455
#
# Disc length: 3501 seconds
#
# Revision: 3
# Processed by: cddbd v1.5.1PL0 Copyright (c) Steve Scherf et al.
# Submitted via: EasyCDDAExtractor 7.5.0.1
#
DISCID=c20dab0f
DTITLE=Nougaro - Hombre et lumiere
DYEAR=1900
DGENRE=Other
TTITLE0=tic-tac
TTITLE1=petit taureau
TTITLE2=le coq et la pendule
TTITLE3=le chat
TTITLE4=comme l'hirondelle
TTITLE5=une riviere des corbieres
TTITLE6=beaucoup de vent
TTITLE7=don quichotte et sancho
TTITLE8=c'est une garonne
TTITLE9=armstrong
TTITLE10=un ete
TTITLE11=une petite fille
TTITLE12=l'enfant phare
TTITLE13=la planete bleue
TTITLE14=bras dessus bras dessous
EXTD=ID3G:  12
EXTT0=
EXTT1=
EXTT2=
EXTT3=
EXTT4=
EXTT5=
EXTT6=
EXTT7=
EXTT8=
EXTT9=
EXTT10=
EXTT11=
EXTT12=
EXTT13=
EXTT14=
PLAYORDER=
